<mxfile host="app.diagrams.net" modified="2024-03-30T16:30:11.843Z" agent="Mozilla/5.0 (Windows NT 10.0; Win64; x64) AppleWebKit/537.36 (KHTML, like Gecko) Chrome/123.0.0.0 Safari/537.36" version="24.0.4" etag="_RaDUTpYyNc42WSqQUSh" type="github">
  <diagram name="第 1 页" id="FP-iy9Qo7uRkneNz5A_b">
    <mxGraphModel>
      <root>
        <mxCell id="0" />
        <mxCell id="1" parent="0" />
      </root>
    </mxGraphModel>
  </diagram>
</mxfile>
